<?xml version="1.0" encoding="UTF-8" ?>
<!DOCTYPE svg PUBLIC "-//W3C//DTD SVG 1.1//EN" "http://www.w3.org/Graphics/SVG/1.1/DTD/svg11.dtd">
<svg width="192pt" height="192pt" viewBox="0 0 192 192" version="1.1" xmlns="http://www.w3.org/2000/svg">
<g id="#ffffffff">
<path fill="#ffffff" opacity="1.00" d=" M 81.03 13.05 C 86.36 9.78 92.69 8.05 98.93 8.03 C 105.80 8.82 112.94 11.02 117.82 16.18 C 122.66 20.43 125.78 26.28 127.60 32.39 C 128.54 35.68 128.83 39.11 129.61 42.44 C 131.65 43.13 133.83 43.07 135.96 43.08 C 144.99 42.94 154.02 43.04 163.04 42.94 C 167.13 42.90 171.57 43.44 174.78 46.22 C 177.42 48.40 178.38 51.87 178.87 55.13 C 182.56 82.45 186.27 109.76 189.87 137.10 C 190.29 141.35 190.98 145.58 192.00 149.74 L 192.00 176.74 C 188.90 180.03 184.60 182.14 180.02 182.01 C 124.67 181.99 69.32 182.00 13.98 182.01 C 9.91 181.87 5.18 180.80 2.93 177.06 C 0.12 172.63 0.88 167.12 1.20 162.16 C 5.47 128.82 9.94 95.52 14.15 62.18 C 15.06 56.51 15.46 50.02 19.78 45.76 C 25.13 42.24 31.91 43.07 38.00 42.98 C 46.58 42.87 55.17 43.29 63.74 42.86 C 65.60 40.21 65.94 36.89 66.91 33.88 C 69.15 25.65 73.93 17.92 81.03 13.05 M 79.39 28.39 C 76.07 32.66 74.66 37.98 72.80 42.96 C 88.95 43.00 105.10 43.06 121.26 42.94 C 120.26 36.80 118.13 30.69 114.18 25.83 C 112.01 23.53 109.13 22.08 106.39 20.60 C 102.37 18.24 97.51 18.92 93.07 19.07 C 87.46 20.09 82.78 23.95 79.39 28.39 M 59.11 84.14 C 52.87 94.17 50.32 106.29 50.78 118.01 C 50.71 126.09 53.20 134.01 56.77 141.19 C 61.83 151.35 70.77 159.28 80.97 164.06 C 88.61 167.22 96.71 169.57 105.00 170.02 C 118.62 169.21 132.41 163.93 141.84 153.84 C 143.97 151.79 143.50 148.26 142.03 145.98 C 136.94 138.03 131.94 130.03 127.03 121.98 C 125.92 119.94 123.84 118.80 121.99 117.53 C 117.24 119.09 113.17 122.71 108.00 122.89 C 104.20 123.02 100.06 123.39 96.67 121.29 C 88.49 117.03 82.20 108.46 82.11 99.05 C 82.68 91.33 86.98 83.59 94.05 80.07 C 97.33 78.25 101.03 76.72 104.86 77.18 C 111.45 78.00 117.61 81.31 122.32 85.93 C 124.13 85.99 125.94 86.02 127.76 86.02 C 129.71 83.82 131.80 81.73 134.00 79.77 C 134.05 77.56 134.06 75.36 134.05 73.16 C 130.63 70.10 127.02 67.22 122.98 65.01 C 116.25 61.71 108.72 60.20 101.25 60.22 C 84.73 61.53 67.74 69.47 59.11 84.14 Z" />
</g>
</svg>
