<?xml version="1.0" encoding="UTF-8"?>
<!DOCTYPE svg PUBLIC "-//W3C//DTD SVG 1.1//EN" "http://www.w3.org/Graphics/SVG/1.1/DTD/svg11.dtd">
<!-- Creator: CorelDRAW 2020 (64-Bit) -->
<svg xmlns="http://www.w3.org/2000/svg" xml:space="preserve" width="159mm" height="160mm" version="1.1" style="shape-rendering:geometricPrecision; text-rendering:geometricPrecision; image-rendering:optimizeQuality; fill-rule:evenodd; clip-rule:evenodd"
viewBox="0 0 15900 16000"
 xmlns:xlink="http://www.w3.org/1999/xlink"
 xmlns:xodm="http://www.corel.com/coreldraw/odm/2003"
 aria-hidden="true"
 focusable="false"
 data-prefix="fab"
 data-icon="instagram"
 role="img">
 <defs>
  <style type="text/css">
   <![CDATA[
    .fil0 {fill:#FEFEFE;fill-rule:nonzero}
   ]]>
  </style>
 </defs>
 <g id="Capa_x0020_1">
  <metadata id="CorelCorpID_0Corel-Layer"/>
  <g id="_2177662507728">
   <path class="fil0" d="M7951.57 3923.08c-2257.22,0 -4077.91,1820.69 -4077.91,4077.91 0,2257.23 1820.69,4077.92 4077.91,4077.92 2257.23,0 4077.92,-1820.69 4077.92,-4077.92 0,-2257.22 -1820.69,-4077.91 -4077.92,-4077.91zm0 6729.09c-1458.67,0 -2651.17,-1188.95 -2651.17,-2651.18 0,-1462.22 1188.95,-2651.17 2651.17,-2651.17 1462.23,0 2651.18,1188.95 2651.18,2651.17 0,1462.23 -1192.5,2651.18 -2651.18,2651.18zm5195.89 -6895.9c0,528.82 -425.89,951.16 -951.16,951.16 -528.82,0 -951.16,-425.89 -951.16,-951.16 0,-525.27 425.89,-951.16 951.16,-951.16 525.27,0 951.16,425.89 951.16,951.16zm2700.87 965.36c-60.33,-1274.13 -351.36,-2402.75 -1284.78,-3332.61 -929.87,-929.87 -2058.48,-1220.89 -3332.61,-1284.78 -1313.17,-74.53 -5249.12,-74.53 -6562.29,0 -1270.58,60.33 -2399.2,351.36 -3332.61,1281.23 -933.41,929.87 -1220.89,2058.48 -1284.78,3332.61 -74.53,1313.17 -74.53,5249.12 0,6562.29 60.33,1274.13 351.36,2402.75 1284.78,3332.61 933.42,929.86 2058.48,1220.89 3332.61,1284.78 1313.17,74.53 5249.12,74.53 6562.29,0 1274.13,-60.33 2402.75,-351.36 3332.61,-1284.78 929.87,-929.87 1220.89,-2058.48 1284.78,-3332.61 74.53,-1313.17 74.53,-5245.57 0,-6558.74zm-1696.47 7967.73c-276.83,695.63 -812.75,1231.54 -1511.92,1511.92 -1046.99,415.25 -3531.36,319.42 -4688.37,319.42 -1157,0 -3644.92,92.28 -4688.36,-319.42 -695.63,-276.83 -1231.54,-812.75 -1511.92,-1511.92 -415.25,-1046.99 -319.42,-3531.36 -319.42,-4688.37 0,-1157 -92.28,-3644.92 319.42,-4688.36 276.83,-695.63 812.75,-1231.54 1511.92,-1511.92 1046.99,-415.25 3531.36,-319.42 4688.36,-319.42 1157.01,0 3644.93,-92.28 4688.37,319.42 695.63,276.83 1231.54,812.75 1511.92,1511.92 415.25,1046.99 319.42,3531.36 319.42,4688.36 0,1157.01 95.83,3644.93 -319.42,4688.37z"/>
  </g>
 </g>
</svg>
