<?xml version="1.0" encoding="UTF-8"?>
<!DOCTYPE svg PUBLIC "-//W3C//DTD SVG 1.1//EN" "http://www.w3.org/Graphics/SVG/1.1/DTD/svg11.dtd">
<!-- Creator: CorelDRAW 2020 (64-Bit) -->
<svg xmlns="http://www.w3.org/2000/svg" xml:space="preserve" width="159mm" height="160mm" version="1.1" style="shape-rendering:geometricPrecision; text-rendering:geometricPrecision; image-rendering:optimizeQuality; fill-rule:evenodd; clip-rule:evenodd"
viewBox="0 0 15900 16000"
 xmlns:xlink="http://www.w3.org/1999/xlink"
 xmlns:xodm="http://www.corel.com/coreldraw/odm/2003"
 aria-hidden="true"
 focusable="false"
 data-prefix="fab"
 data-icon="youtube"
 role="img">
 <defs>
  <style type="text/css">
   <![CDATA[
    .fil0 {fill:#FEFEFE;fill-rule:nonzero}
   ]]>
  </style>
 </defs>
 <g id="Capa_x0020_1">
  <metadata id="CorelCorpID_0Corel-Layer"/>
  <g id="_2177664863824">
   <path class="fil0" d="M15458.39 4215.44c-180.25,-678.67 -711.3,-1213.16 -1385.59,-1394.56 -1222.18,-329.61 -6123,-329.61 -6123,-329.61 0,0 -4900.79,0 -6123,329.61 -674.29,181.42 -1205.34,715.89 -1385.58,1394.56 -327.49,1230.14 -327.49,3796.7 -327.49,3796.7 0,0 0,2566.55 327.49,3796.69 180.24,678.67 711.29,1190.9 1385.58,1372.29 1222.21,329.61 6123,329.61 6123,329.61 0,0 4900.79,0 6123,-329.61 674.29,-181.39 1205.34,-693.62 1385.59,-1372.29 327.48,-1230.14 327.48,-3796.69 327.48,-3796.69 0,0 0,-2566.56 -327.48,-3796.7zm-9111.43 6126.94l0 -4660.49 4096.11 2330.31 -4096.11 2330.19 0 -0.01z"/>
  </g>
 </g>
</svg>
